<?xml version="1.0" standalone="no"?>
<!DOCTYPE svg PUBLIC "-//W3C//DTD SVG 20010904//EN"
 "http://www.w3.org/TR/2001/REC-SVG-20010904/DTD/svg10.dtd">
<svg version="1.0" xmlns="http://www.w3.org/2000/svg"
 width="512.000000pt" height="512.000000pt" viewBox="0 0 512.000000 512.000000"
 preserveAspectRatio="xMidYMid meet">

<g transform="translate(0.000000,512.000000) scale(0.100000,-0.100000)"
fill="#000000" stroke="none">
<path d="M4560 5107 c-62 -21 -130 -67 -159 -108 -16 -21 -53 -93 -81 -159
l-53 -120 -41 0 c-56 -1 -117 -30 -155 -76 -23 -28 -255 -558 -803 -1834 -423
-987 -776 -1813 -784 -1836 -13 -36 -13 -69 4 -290 11 -137 18 -250 17 -252
-1 -1 -27 31 -58 72 -218 289 -451 432 -645 396 -129 -23 -208 -86 -370 -292
-171 -216 -269 -273 -403 -235 -54 16 -180 86 -186 104 -2 5 27 31 64 58 331
240 502 423 564 604 68 195 -44 417 -261 520 -73 34 -78 35 -195 36 -139 0
-217 -20 -325 -82 -80 -47 -213 -178 -259 -256 -141 -240 -121 -544 50 -794
16 -23 29 -45 29 -50 0 -9 -81 -62 -300 -196 -168 -103 -200 -132 -200 -183 0
-50 45 -94 96 -94 39 0 78 21 384 215 80 50 150 94 156 98 6 3 37 -14 70 -38
125 -94 275 -155 380 -155 163 1 318 100 475 302 84 108 177 206 214 225 45
24 124 19 181 -10 118 -61 215 -158 404 -407 82 -107 163 -209 180 -227 44
-45 88 -51 143 -21 23 13 185 140 358 280 l315 257 728 1708 c400 939 730
1710 732 1712 7 7 55 -42 71 -73 30 -58 14 -108 -82 -260 -193 -306 -278 -554
-300 -883 -9 -122 1 -154 51 -178 43 -20 83 -13 114 20 19 20 24 44 36 161 21
214 41 304 103 457 45 113 84 187 169 322 97 154 121 213 122 291 0 118 -50
220 -142 289 -29 21 -54 40 -56 40 -1 1 5 31 15 67 14 55 15 71 4 111 -8 25
-29 64 -48 87 l-35 40 53 128 c49 117 53 133 54 207 0 68 -4 89 -28 137 -32
65 -90 122 -156 151 -54 24 -161 31 -211 14z m114 -238 c13 -7 30 -24 36 -39
10 -24 5 -42 -36 -142 l-47 -116 -63 27 c-35 14 -64 30 -64 34 0 13 70 180 86
205 12 18 33 33 61 41 1 1 13 -4 27 -10z m-209 -494 c110 -48 204 -91 209 -95
9 -9 -434 -1060 -447 -1060 -5 0 -105 41 -223 92 -147 62 -213 96 -210 104 59
153 454 1053 461 1050 5 -2 100 -43 210 -91z m-520 -1255 c105 -45 193 -85
198 -89 4 -4 -209 -516 -474 -1137 -264 -621 -484 -1135 -487 -1143 -12 -31
-175 4 -294 64 -61 31 -158 101 -158 115 0 5 214 508 476 1117 262 609 482
1123 489 1140 12 29 17 32 37 24 13 -5 109 -46 213 -91z m-2815 -1645 c154
-79 199 -208 119 -340 -75 -125 -191 -236 -430 -415 l-134 -100 -17 22 c-66
88 -110 191 -128 302 -44 279 204 566 480 553 46 -2 88 -11 110 -22z m1798
-896 c23 -6 42 -15 42 -19 0 -4 -48 -47 -107 -95 l-108 -87 -7 88 c-4 49 -9
114 -11 146 l-5 56 77 -38 c42 -21 95 -44 119 -51z"/>
</g>
</svg>
